<svg width="129" height="47" viewBox="0 0 129 47" fill="none" xmlns="http://www.w3.org/2000/svg">
<path d="M6.67188 25.2188C4.93099 25.2188 3.52734 24.6764 2.46094 23.5918C1.40365 22.5072 0.875 20.9896 0.875 19.0391V7.9375C0.875 5.60417 1.33529 3.81771 2.25586 2.57812C3.18555 1.33854 4.69401 0.71875 6.78125 0.71875C7.92057 0.71875 8.93229 0.928385 9.81641 1.34766C10.7096 1.76693 11.4115 2.39583 11.9219 3.23438C12.4323 4.0638 12.6875 5.11198 12.6875 6.37891V10.5352H7.90234V6.98047C7.90234 6.26042 7.8112 5.77734 7.62891 5.53125C7.44661 5.27604 7.16406 5.14844 6.78125 5.14844C6.33464 5.14844 6.03385 5.3125 5.87891 5.64062C5.72396 5.95964 5.64648 6.38802 5.64648 6.92578V18.9707C5.64648 19.6361 5.74219 20.1055 5.93359 20.3789C6.13411 20.6523 6.41667 20.7891 6.78125 20.7891C7.19141 20.7891 7.47852 20.6204 7.64258 20.2832C7.81576 19.946 7.90234 19.5085 7.90234 18.9707V14.6367H12.7422V19.1895C12.7422 21.304 12.209 22.8398 11.1426 23.7969C10.0762 24.7448 8.58594 25.2188 6.67188 25.2188ZM14.1367 25V0.9375H18.7852V25H14.1367ZM20.6992 25V0.9375H25.6484L27.8633 12.4629V0.9375H32.5117V25H27.8086L25.4023 12.9688V25H20.6992ZM34.6445 25V0.9375H44.2695V5.58594H39.5391V10.2754H44.0781V14.8008H39.5391V20.3105H44.584V25H34.6445ZM46.1836 25V0.9375H53.5117L55.5352 15.6074L57.5449 0.9375H64.9414V25H60.5391V7.66406L57.7773 25H53.457L50.5312 7.66406V25H46.1836ZM66.418 25L68.7422 0.9375H76.9043L79.1875 25H74.6348L74.293 21.1172H71.3945L71.0938 25H66.418ZM71.7363 17.2754H73.9238L72.8711 5.03906H72.6523L71.7363 17.2754Z" fill="#C74747"/>
<path d="M80.6641 25V0.9375H90.2891V5.62695H85.5039V9.45508H90.043V14.0898H85.5039V25H80.6641ZM91.6289 25V0.9375H96.2773V25H91.6289ZM98.1914 25V0.9375H103.004V20.8984H107.953V25H98.1914ZM109.32 25V0.9375H116.648L118.672 15.6074L120.682 0.9375H128.078V25H123.676V7.66406L120.914 25H116.594L113.668 7.66406V25H109.32Z" fill="#3B4153"/>
<path d="M3.458 43.034C4.87667 43.034 5.586 42.5487 5.586 41.578C5.586 41.2793 5.52067 41.0273 5.39 40.822C5.26867 40.6073 5.10067 40.4253 4.886 40.276C4.67133 40.1173 4.424 39.982 4.144 39.87C3.87333 39.758 3.584 39.646 3.276 39.534C2.92133 39.4127 2.58533 39.2773 2.268 39.128C1.95067 38.9693 1.67533 38.7873 1.442 38.582C1.20867 38.3673 1.022 38.1153 0.882 37.826C0.751333 37.5367 0.686 37.1867 0.686 36.776C0.686 35.9267 0.975333 35.264 1.554 34.788C2.13267 34.312 2.93067 34.074 3.948 34.074C4.536 34.074 5.068 34.1393 5.544 34.27C6.02933 34.3913 6.384 34.5267 6.608 34.676L6.174 35.782C5.978 35.6607 5.684 35.544 5.292 35.432C4.90933 35.3107 4.46133 35.25 3.948 35.25C3.68667 35.25 3.444 35.278 3.22 35.334C2.996 35.39 2.8 35.474 2.632 35.586C2.464 35.698 2.32867 35.8427 2.226 36.02C2.13267 36.188 2.086 36.3887 2.086 36.622C2.086 36.8833 2.13733 37.1027 2.24 37.28C2.34267 37.4573 2.48733 37.616 2.674 37.756C2.86067 37.8867 3.07533 38.008 3.318 38.12C3.57 38.232 3.84533 38.344 4.144 38.456C4.564 38.624 4.94667 38.792 5.292 38.96C5.64667 39.128 5.95 39.3287 6.202 39.562C6.46333 39.7953 6.664 40.0753 6.804 40.402C6.944 40.7193 7.014 41.1067 7.014 41.564C7.014 42.4133 6.70133 43.0667 6.076 43.524C5.46 43.9813 4.58733 44.21 3.458 44.21C3.07533 44.21 2.72067 44.182 2.394 44.126C2.07667 44.0793 1.792 44.0233 1.54 43.958C1.288 43.8833 1.06867 43.8087 0.882 43.734C0.704667 43.65 0.564667 43.58 0.462 43.524L0.868 42.404C1.08267 42.5253 1.40933 42.6607 1.848 42.81C2.28667 42.9593 2.82333 43.034 3.458 43.034ZM9.78917 36.72H12.5472V37.812H9.78917V41.172C9.78917 41.536 9.81717 41.8393 9.87317 42.082C9.92917 42.3153 10.0132 42.502 10.1252 42.642C10.2372 42.7727 10.3772 42.866 10.5452 42.922C10.7132 42.978 10.9092 43.006 11.1332 43.006C11.5252 43.006 11.8378 42.964 12.0712 42.88C12.3138 42.7867 12.4818 42.7213 12.5752 42.684L12.8272 43.762C12.6965 43.8273 12.4678 43.9067 12.1412 44C11.8145 44.1027 11.4412 44.154 11.0212 44.154C10.5265 44.154 10.1158 44.0933 9.78917 43.972C9.47184 43.8413 9.21517 43.65 9.01917 43.398C8.82317 43.146 8.68317 42.838 8.59917 42.474C8.52451 42.1007 8.48717 41.6713 8.48717 41.186V34.69L9.78917 34.466V36.72ZM16.892 36.566C17.004 36.566 17.13 36.5753 17.27 36.594C17.4193 36.6033 17.564 36.622 17.704 36.65C17.844 36.6687 17.97 36.692 18.082 36.72C18.2033 36.7387 18.292 36.7573 18.348 36.776L18.124 37.91C18.0213 37.8727 17.8487 37.8307 17.606 37.784C17.3727 37.728 17.0693 37.7 16.696 37.7C16.4533 37.7 16.2107 37.728 15.968 37.784C15.7347 37.8307 15.5807 37.8633 15.506 37.882V44H14.204V37.028C14.512 36.916 14.8947 36.8133 15.352 36.72C15.8093 36.6173 16.3227 36.566 16.892 36.566ZM19.1984 40.374C19.1984 39.73 19.2917 39.17 19.4784 38.694C19.665 38.2087 19.9124 37.8073 20.2204 37.49C20.5284 37.1727 20.883 36.9347 21.2844 36.776C21.6857 36.6173 22.0964 36.538 22.5164 36.538C23.4964 36.538 24.2477 36.846 24.7704 37.462C25.293 38.0687 25.5544 38.9973 25.5544 40.248C25.5544 40.304 25.5544 40.3787 25.5544 40.472C25.5544 40.556 25.5497 40.6353 25.5404 40.71H20.5564C20.6124 41.466 20.8317 42.04 21.2144 42.432C21.597 42.824 22.1944 43.02 23.0064 43.02C23.4637 43.02 23.8464 42.9827 24.1544 42.908C24.4717 42.824 24.7097 42.7447 24.8684 42.67L25.0504 43.762C24.8917 43.846 24.6117 43.9347 24.2104 44.028C23.8184 44.1213 23.3704 44.168 22.8664 44.168C22.2317 44.168 21.681 44.0747 21.2144 43.888C20.757 43.692 20.379 43.426 20.0804 43.09C19.7817 42.754 19.5577 42.3573 19.4084 41.9C19.2684 41.4333 19.1984 40.9247 19.1984 40.374ZM24.1964 39.66C24.2057 39.072 24.0564 38.5913 23.7484 38.218C23.4497 37.8353 23.0344 37.644 22.5024 37.644C22.2037 37.644 21.9377 37.7047 21.7044 37.826C21.4804 37.938 21.289 38.0873 21.1304 38.274C20.9717 38.4607 20.8457 38.6753 20.7524 38.918C20.6684 39.1607 20.6124 39.408 20.5844 39.66H24.1964ZM29.8887 43.062C30.1967 43.062 30.4674 43.0573 30.7007 43.048C30.9434 43.0293 31.144 43.0013 31.3027 42.964V40.794C31.2094 40.7473 31.0554 40.71 30.8407 40.682C30.6354 40.6447 30.3834 40.626 30.0847 40.626C29.8887 40.626 29.6787 40.64 29.4547 40.668C29.24 40.696 29.0394 40.7567 28.8527 40.85C28.6754 40.934 28.526 41.0553 28.4047 41.214C28.2834 41.3633 28.2227 41.564 28.2227 41.816C28.2227 42.2827 28.372 42.6093 28.6707 42.796C28.9694 42.9733 29.3754 43.062 29.8887 43.062ZM29.7767 36.538C30.2994 36.538 30.738 36.608 31.0927 36.748C31.4567 36.8787 31.746 37.07 31.9607 37.322C32.1847 37.5647 32.3434 37.8587 32.4367 38.204C32.53 38.54 32.5767 38.9133 32.5767 39.324V43.874C32.4647 43.8927 32.306 43.9207 32.1007 43.958C31.9047 43.986 31.6807 44.014 31.4287 44.042C31.1767 44.07 30.9014 44.0933 30.6027 44.112C30.3134 44.14 30.024 44.154 29.7347 44.154C29.324 44.154 28.946 44.112 28.6007 44.028C28.2554 43.944 27.9567 43.8133 27.7047 43.636C27.4527 43.4493 27.2567 43.2067 27.1167 42.908C26.9767 42.6093 26.9067 42.25 26.9067 41.83C26.9067 41.4287 26.986 41.0833 27.1447 40.794C27.3127 40.5047 27.5367 40.2713 27.8167 40.094C28.0967 39.9167 28.4234 39.786 28.7967 39.702C29.17 39.618 29.562 39.576 29.9727 39.576C30.1034 39.576 30.2387 39.5853 30.3787 39.604C30.5187 39.6133 30.6494 39.632 30.7707 39.66C30.9014 39.6787 31.0134 39.6973 31.1067 39.716C31.2 39.7347 31.2654 39.7487 31.3027 39.758V39.394C31.3027 39.1793 31.2794 38.9693 31.2327 38.764C31.186 38.5493 31.102 38.3627 30.9807 38.204C30.8594 38.036 30.6914 37.9053 30.4767 37.812C30.2714 37.7093 30.0007 37.658 29.6647 37.658C29.2354 37.658 28.8574 37.6907 28.5307 37.756C28.2134 37.812 27.9754 37.8727 27.8167 37.938L27.6627 36.86C27.8307 36.7853 28.1107 36.7153 28.5027 36.65C28.8947 36.5753 29.3194 36.538 29.7767 36.538ZM34.7391 36.93C35.0378 36.8553 35.4298 36.776 35.9151 36.692C36.4098 36.608 36.9791 36.566 37.6231 36.566C38.0898 36.566 38.4818 36.6313 38.7991 36.762C39.1165 36.8833 39.3825 37.0653 39.5971 37.308C39.6625 37.2613 39.7651 37.196 39.9051 37.112C40.0451 37.028 40.2178 36.9487 40.4231 36.874C40.6285 36.79 40.8571 36.72 41.1091 36.664C41.3611 36.5987 41.6318 36.566 41.9211 36.566C42.4811 36.566 42.9385 36.65 43.2931 36.818C43.6478 36.9767 43.9231 37.2053 44.1191 37.504C44.3245 37.8027 44.4598 38.1573 44.5251 38.568C44.5998 38.9787 44.6371 39.4267 44.6371 39.912V44H43.3351V40.192C43.3351 39.7627 43.3118 39.394 43.2651 39.086C43.2278 38.778 43.1485 38.5213 43.0271 38.316C42.9151 38.1107 42.7565 37.9613 42.5511 37.868C42.3551 37.7653 42.0985 37.714 41.7811 37.714C41.3425 37.714 40.9785 37.7747 40.6891 37.896C40.4091 38.008 40.2178 38.1107 40.1151 38.204C40.1898 38.4467 40.2458 38.7127 40.2831 39.002C40.3205 39.2913 40.3391 39.5947 40.3391 39.912V44H39.0371V40.192C39.0371 39.7627 39.0138 39.394 38.9671 39.086C38.9205 38.778 38.8365 38.5213 38.7151 38.316C38.6031 38.1107 38.4445 37.9613 38.2391 37.868C38.0431 37.7653 37.7911 37.714 37.4831 37.714C37.3525 37.714 37.2125 37.7187 37.0631 37.728C36.9138 37.7373 36.7691 37.7513 36.6291 37.77C36.4985 37.7793 36.3771 37.7933 36.2651 37.812C36.1531 37.8307 36.0785 37.8447 36.0411 37.854V44H34.7391V36.93ZM48.0997 44H46.7977V36.72H48.0997V44ZM47.4417 35.404C47.2084 35.404 47.0077 35.3293 46.8397 35.18C46.6811 35.0213 46.6017 34.8113 46.6017 34.55C46.6017 34.2887 46.6811 34.0833 46.8397 33.934C47.0077 33.7753 47.2084 33.696 47.4417 33.696C47.6751 33.696 47.8711 33.7753 48.0297 33.934C48.1977 34.0833 48.2817 34.2887 48.2817 34.55C48.2817 34.8113 48.1977 35.0213 48.0297 35.18C47.8711 35.3293 47.6751 35.404 47.4417 35.404ZM50.3388 36.93C50.6374 36.8553 51.0341 36.776 51.5288 36.692C52.0234 36.608 52.5928 36.566 53.2368 36.566C53.8154 36.566 54.2961 36.65 54.6788 36.818C55.0614 36.9767 55.3648 37.2053 55.5888 37.504C55.8221 37.7933 55.9854 38.1433 56.0788 38.554C56.1721 38.9647 56.2188 39.4173 56.2188 39.912V44H54.9168V40.192C54.9168 39.744 54.8841 39.3613 54.8188 39.044C54.7628 38.7267 54.6648 38.47 54.5248 38.274C54.3848 38.078 54.1981 37.938 53.9648 37.854C53.7314 37.7607 53.4421 37.714 53.0968 37.714C52.9568 37.714 52.8121 37.7187 52.6628 37.728C52.5134 37.7373 52.3688 37.7513 52.2288 37.77C52.0981 37.7793 51.9768 37.7933 51.8648 37.812C51.7621 37.8307 51.6874 37.8447 51.6408 37.854V44H50.3388V36.93ZM62.9418 43.272C62.8298 43.3467 62.6105 43.4447 62.2838 43.566C61.9665 43.678 61.5931 43.734 61.1638 43.734C60.7251 43.734 60.3098 43.664 59.9178 43.524C59.5351 43.384 59.1991 43.1693 58.9098 42.88C58.6205 42.5813 58.3918 42.2127 58.2238 41.774C58.0558 41.3353 57.9718 40.8127 57.9718 40.206C57.9718 39.674 58.0511 39.1887 58.2098 38.75C58.3685 38.302 58.5971 37.9193 58.8958 37.602C59.2038 37.2753 59.5771 37.0233 60.0158 36.846C60.4545 36.6593 60.9491 36.566 61.4998 36.566C62.1065 36.566 62.6338 36.6127 63.0818 36.706C63.5391 36.79 63.9218 36.8693 64.2298 36.944V43.44C64.2298 44.56 63.9405 45.372 63.3618 45.876C62.7831 46.38 61.9058 46.632 60.7298 46.632C60.2725 46.632 59.8385 46.5947 59.4278 46.52C59.0265 46.4453 58.6765 46.3567 58.3778 46.254L58.6158 45.12C58.8771 45.2227 59.1945 45.3113 59.5678 45.386C59.9505 45.47 60.3471 45.512 60.7578 45.512C61.5325 45.512 62.0878 45.358 62.4238 45.05C62.7691 44.742 62.9418 44.252 62.9418 43.58V43.272ZM62.9278 37.868C62.7971 37.8307 62.6198 37.798 62.3958 37.77C62.1811 37.7327 61.8871 37.714 61.5138 37.714C60.8138 37.714 60.2725 37.9427 59.8898 38.4C59.5165 38.8573 59.3298 39.464 59.3298 40.22C59.3298 40.64 59.3811 40.9993 59.4838 41.298C59.5958 41.5967 59.7405 41.844 59.9178 42.04C60.1045 42.236 60.3145 42.3807 60.5478 42.474C60.7905 42.5673 61.0378 42.614 61.2898 42.614C61.6351 42.614 61.9525 42.5673 62.2418 42.474C62.5311 42.3713 62.7598 42.2547 62.9278 42.124V37.868ZM74.1498 42.656C74.0565 42.432 73.9305 42.1473 73.7718 41.802C73.6225 41.4567 73.4591 41.0833 73.2818 40.682C73.1045 40.2807 72.9131 39.87 72.7078 39.45C72.5118 39.0207 72.3251 38.6193 72.1478 38.246C71.9705 37.8633 71.8025 37.5227 71.6438 37.224C71.4945 36.9253 71.3731 36.6967 71.2798 36.538C71.1771 37.6393 71.0931 38.834 71.0278 40.122C70.9625 41.4007 70.9065 42.6933 70.8598 44H69.5298C69.5671 43.16 69.6091 42.3153 69.6558 41.466C69.7025 40.6073 69.7538 39.7673 69.8098 38.946C69.8751 38.1153 69.9405 37.308 70.0058 36.524C70.0805 35.74 70.1598 34.998 70.2438 34.298H71.4338C71.6858 34.7087 71.9565 35.194 72.2458 35.754C72.5351 36.314 72.8245 36.902 73.1138 37.518C73.4031 38.1247 73.6831 38.736 73.9538 39.352C74.2245 39.9587 74.4718 40.514 74.6958 41.018C74.9198 40.514 75.1671 39.9587 75.4378 39.352C75.7085 38.736 75.9885 38.1247 76.2778 37.518C76.5671 36.902 76.8565 36.314 77.1458 35.754C77.4351 35.194 77.7058 34.7087 77.9578 34.298H79.1478C79.4651 37.4247 79.7031 40.6587 79.8618 44H78.5318C78.4851 42.6933 78.4291 41.4007 78.3638 40.122C78.2985 38.834 78.2145 37.6393 78.1118 36.538C78.0185 36.6967 77.8925 36.9253 77.7338 37.224C77.5845 37.5227 77.4211 37.8633 77.2438 38.246C77.0665 38.6193 76.8751 39.0207 76.6698 39.45C76.4738 39.87 76.2871 40.2807 76.1098 40.682C75.9325 41.0833 75.7645 41.4567 75.6058 41.802C75.4565 42.1473 75.3351 42.432 75.2418 42.656H74.1498ZM88.3331 40.36C88.3331 40.9387 88.2491 41.4613 88.0811 41.928C87.9131 42.3947 87.6751 42.796 87.3671 43.132C87.0684 43.468 86.7091 43.7293 86.2891 43.916C85.8691 44.0933 85.4118 44.182 84.9171 44.182C84.4224 44.182 83.9651 44.0933 83.5451 43.916C83.1251 43.7293 82.7611 43.468 82.4531 43.132C82.1544 42.796 81.9211 42.3947 81.7531 41.928C81.5851 41.4613 81.5011 40.9387 81.5011 40.36C81.5011 39.7907 81.5851 39.2727 81.7531 38.806C81.9211 38.33 82.1544 37.924 82.4531 37.588C82.7611 37.252 83.1251 36.9953 83.5451 36.818C83.9651 36.6313 84.4224 36.538 84.9171 36.538C85.4118 36.538 85.8691 36.6313 86.2891 36.818C86.7091 36.9953 87.0684 37.252 87.3671 37.588C87.6751 37.924 87.9131 38.33 88.0811 38.806C88.2491 39.2727 88.3331 39.7907 88.3331 40.36ZM86.9751 40.36C86.9751 39.5387 86.7884 38.89 86.4151 38.414C86.0511 37.9287 85.5518 37.686 84.9171 37.686C84.2824 37.686 83.7784 37.9287 83.4051 38.414C83.0411 38.89 82.8591 39.5387 82.8591 40.36C82.8591 41.1813 83.0411 41.8347 83.4051 42.32C83.7784 42.796 84.2824 43.034 84.9171 43.034C85.5518 43.034 86.0511 42.796 86.4151 42.32C86.7884 41.8347 86.9751 41.1813 86.9751 40.36ZM95.6575 36.72C95.2935 38.0827 94.8642 39.3893 94.3695 40.64C93.8842 41.8907 93.4128 43.0107 92.9555 44H91.7795C91.3222 43.0107 90.8462 41.8907 90.3515 40.64C89.8662 39.3893 89.4415 38.0827 89.0775 36.72H90.4775C90.5895 37.1773 90.7202 37.6673 90.8695 38.19C91.0282 38.7033 91.1915 39.2167 91.3595 39.73C91.5368 40.234 91.7142 40.724 91.8915 41.2C92.0688 41.676 92.2368 42.1007 92.3955 42.474C92.5542 42.1007 92.7222 41.676 92.8995 41.2C93.0768 40.724 93.2495 40.234 93.4175 39.73C93.5948 39.2167 93.7582 38.7033 93.9075 38.19C94.0662 37.6673 94.2015 37.1773 94.3135 36.72H95.6575ZM98.3029 44H97.0009V36.72H98.3029V44ZM97.6449 35.404C97.4115 35.404 97.2109 35.3293 97.0429 35.18C96.8842 35.0213 96.8049 34.8113 96.8049 34.55C96.8049 34.2887 96.8842 34.0833 97.0429 33.934C97.2109 33.7753 97.4115 33.696 97.6449 33.696C97.8782 33.696 98.0742 33.7753 98.2329 33.934C98.4009 34.0833 98.4849 34.2887 98.4849 34.55C98.4849 34.8113 98.4009 35.0213 98.2329 35.18C98.0742 35.3293 97.8782 35.404 97.6449 35.404ZM100.136 40.374C100.136 39.73 100.229 39.17 100.416 38.694C100.603 38.2087 100.85 37.8073 101.158 37.49C101.466 37.1727 101.821 36.9347 102.222 36.776C102.623 36.6173 103.034 36.538 103.454 36.538C104.434 36.538 105.185 36.846 105.708 37.462C106.231 38.0687 106.492 38.9973 106.492 40.248C106.492 40.304 106.492 40.3787 106.492 40.472C106.492 40.556 106.487 40.6353 106.478 40.71H101.494C101.55 41.466 101.769 42.04 102.152 42.432C102.535 42.824 103.132 43.02 103.944 43.02C104.401 43.02 104.784 42.9827 105.092 42.908C105.409 42.824 105.647 42.7447 105.806 42.67L105.988 43.762C105.829 43.846 105.549 43.9347 105.148 44.028C104.756 44.1213 104.308 44.168 103.804 44.168C103.169 44.168 102.619 44.0747 102.152 43.888C101.695 43.692 101.317 43.426 101.018 43.09C100.719 42.754 100.495 42.3573 100.346 41.9C100.206 41.4333 100.136 40.9247 100.136 40.374ZM105.134 39.66C105.143 39.072 104.994 38.5913 104.686 38.218C104.387 37.8353 103.972 37.644 103.44 37.644C103.141 37.644 102.875 37.7047 102.642 37.826C102.418 37.938 102.227 38.0873 102.068 38.274C101.909 38.4607 101.783 38.6753 101.69 38.918C101.606 39.1607 101.55 39.408 101.522 39.66H105.134ZM110.056 43.062C110.588 43.062 110.98 42.992 111.232 42.852C111.494 42.712 111.624 42.488 111.624 42.18C111.624 41.8627 111.498 41.6107 111.246 41.424C110.994 41.2373 110.579 41.0273 110 40.794C109.72 40.682 109.45 40.57 109.188 40.458C108.936 40.3367 108.717 40.1967 108.53 40.038C108.344 39.8793 108.194 39.688 108.082 39.464C107.97 39.24 107.914 38.9647 107.914 38.638C107.914 37.994 108.152 37.4853 108.628 37.112C109.104 36.7293 109.753 36.538 110.574 36.538C110.78 36.538 110.985 36.552 111.19 36.58C111.396 36.5987 111.587 36.6267 111.764 36.664C111.942 36.692 112.096 36.7247 112.226 36.762C112.366 36.7993 112.474 36.832 112.548 36.86L112.31 37.98C112.17 37.9053 111.951 37.8307 111.652 37.756C111.354 37.672 110.994 37.63 110.574 37.63C110.21 37.63 109.893 37.7047 109.622 37.854C109.352 37.994 109.216 38.218 109.216 38.526C109.216 38.6847 109.244 38.8247 109.3 38.946C109.366 39.0673 109.459 39.1793 109.58 39.282C109.711 39.3753 109.87 39.464 110.056 39.548C110.243 39.632 110.467 39.7207 110.728 39.814C111.074 39.9447 111.382 40.0753 111.652 40.206C111.923 40.3273 112.152 40.472 112.338 40.64C112.534 40.808 112.684 41.0133 112.786 41.256C112.889 41.4893 112.94 41.7787 112.94 42.124C112.94 42.796 112.688 43.3047 112.184 43.65C111.69 43.9953 110.98 44.168 110.056 44.168C109.412 44.168 108.908 44.112 108.544 44C108.18 43.8973 107.933 43.818 107.802 43.762L108.04 42.642C108.19 42.698 108.428 42.782 108.754 42.894C109.081 43.006 109.515 43.062 110.056 43.062Z" fill="white" fill-opacity="0.76"/>
</svg>
