<svg width="14" height="14" viewBox="0 0 14 14" fill="none" xmlns="http://www.w3.org/2000/svg">
<path d="M13.9872 4.44993C13.9206 4.67377 13.7595 4.83508 13.5875 4.99478C11.6084 6.83246 9.63212 8.67272 7.65471 10.512C7.597 10.5657 7.53819 10.6189 7.47523 10.667C7.18564 10.8884 6.82832 10.887 6.54146 10.6647C6.49619 10.6296 6.4528 10.5921 6.41116 10.5533C4.37746 8.65893 2.34394 6.76439 0.310782 4.86953C0.00924901 4.58851 -0.0842383 4.25087 0.138518 3.97012C0.345107 3.70976 0.606949 3.47612 0.883787 3.27808C1.13248 3.10021 1.48511 3.15567 1.73153 3.34295C1.78412 3.38291 1.83273 3.42765 1.88088 3.47236C3.54855 5.02048 5.21604 6.56873 6.88279 8.11771C6.92099 8.15322 6.95041 8.19684 6.99138 8.24554C7.05043 8.19363 7.08963 8.16084 7.1269 8.12623C8.80733 6.56609 10.4875 5.0057 12.168 3.4457C12.481 3.15521 12.8854 3.0819 13.1856 3.31105C13.5073 3.55669 13.852 3.79924 13.9872 4.19676C13.9872 4.28116 13.9872 4.36556 13.9872 4.44993Z" fill="white" fill-opacity="0.36"/>
</svg>
