<svg width="9" height="10" viewBox="0 0 9 10" fill="none" xmlns="http://www.w3.org/2000/svg">
<g clip-path="url(#clip0_513_1579)">
<path d="M5.80232 4.9972C5.37924 4.63438 4.965 4.27921 4.55075 3.92403C3.67165 3.17068 2.79334 2.41693 1.91343 1.66519C1.72982 1.50849 1.62375 1.31845 1.65267 1.07416C1.682 0.826261 1.81459 0.645859 2.04843 0.550234C2.2891 0.452198 2.5125 0.494385 2.70857 0.659117C3.03482 0.933135 3.35625 1.21238 3.67968 1.48921C4.83281 2.4768 5.98553 3.46519 7.14067 4.45077C7.35482 4.63358 7.49102 4.85014 7.40986 5.133C7.37089 5.26921 7.28611 5.41425 7.17964 5.50586C5.685 6.79599 4.18352 8.07809 2.68245 9.36019C2.39959 9.60166 1.99861 9.56791 1.76879 9.29108C1.53375 9.00782 1.57513 8.62331 1.87125 8.36979C3.14209 7.28055 4.41375 6.19211 5.68459 5.10367C5.72196 5.07153 5.75772 5.03738 5.80232 4.9972Z" fill="#C53F3F"/>
</g>
<defs>
<clipPath id="clip0_513_1579">
<rect width="9" height="9" fill="white" transform="translate(0 0.5)"/>
</clipPath>
</defs>
</svg>
