<svg width="23" height="23" viewBox="0 0 23 23" fill="none" xmlns="http://www.w3.org/2000/svg">
<g clip-path="url(#clip0_513_1109)">
<path d="M10.7812 -0.00585938C11.2606 -0.00585938 11.7394 -0.00585938 12.2188 -0.00585938C12.2762 0.00671875 12.3338 0.0219923 12.3917 0.0314259C12.982 0.123066 13.5808 0.177422 14.1616 0.31039C18.5909 1.32293 22.0751 5.03033 22.8257 9.51174C22.8958 9.93086 22.9425 10.354 23 10.7754C23 11.2547 23 11.7336 23 12.2129C22.9874 12.2708 22.9708 12.3279 22.9623 12.3867C22.8841 12.9191 22.8347 13.4568 22.726 13.9824C21.8037 18.4409 17.9912 22.089 13.5035 22.8167C13.0768 22.8859 12.6469 22.9353 12.2188 22.9941C11.7394 22.9941 11.2606 22.9941 10.7812 22.9941C10.7314 22.982 10.682 22.9658 10.6312 22.9582C10.1065 22.8814 9.57645 22.8311 9.0576 22.7269C4.5982 21.8343 0.90293 17.9984 0.179688 13.5206C0.109609 13.0862 0.0592969 12.6491 0 12.2129C0 11.7336 0 11.2547 0 10.7754C0.0732227 10.266 0.128477 9.75342 0.222812 9.24805C1.07723 4.66961 4.90277 0.926719 9.49559 0.171133C9.92234 0.101055 10.3527 0.0525391 10.7812 -0.00585938ZM18.4027 18.9062C21.1928 16.3897 22.5436 12.0795 21.0171 7.96642C19.4642 3.78195 15.268 0.925371 10.4902 1.39301C6.11297 1.82111 2.45318 5.07346 1.55789 9.45424C1.1208 11.5934 1.35035 13.6675 2.24654 15.6606C2.80357 16.9005 3.58252 17.9822 4.59236 18.9202C5.28191 16.7217 6.66191 15.1791 8.75707 14.2425C7.45254 13.3261 6.67135 12.1028 6.52445 10.5283C6.37756 8.95381 6.87979 7.58953 8.00732 6.47547C9.94346 4.5627 13.0727 4.57033 15.0088 6.49074C15.9774 7.45162 16.4886 8.62184 16.4958 9.98971C16.5052 11.7938 15.7092 13.1899 14.2492 14.2443C16.339 15.1795 17.7185 16.7221 18.4027 18.9062ZM11.146 21.6451C13.4352 21.6532 15.3601 21.0823 17.0133 20.0208C17.2015 19.8999 17.2275 19.7858 17.1799 19.5837C16.5829 17.0604 14.5331 15.2918 11.9425 15.0758C9.06074 14.8354 6.4117 16.8071 5.8048 19.638C5.76797 19.811 5.8102 19.904 5.96068 20.0005C7.63986 21.0818 9.47717 21.6263 11.146 21.6451ZM7.84785 10.0346C7.83797 12.0548 9.46414 13.6949 11.4843 13.7029C13.5062 13.711 15.1418 12.0894 15.1521 10.0661C15.1625 8.04818 13.5408 6.41033 11.5157 6.39371C9.50682 6.37709 7.85729 8.01449 7.84785 10.0346Z" fill="white"/>
</g>
<defs>
<clipPath id="clip0_513_1109">
<rect width="23" height="23" fill="white"/>
</clipPath>
</defs>
</svg>
