<svg width="19" height="19" viewBox="0 0 19 19" fill="none" xmlns="http://www.w3.org/2000/svg">
<g clip-path="url(#clip0_513_1105)">
<path d="M18.1482 19.0262C17.9656 18.8954 17.7608 18.7856 17.6028 18.6289C16.1667 17.2051 14.7393 15.7727 13.3106 14.3428C13.2587 14.291 13.2217 14.2243 13.1736 14.1602C11.0121 15.843 8.63583 16.4155 6.0116 15.7542C4.06102 15.2632 2.52498 14.1355 1.40102 12.4773C-0.802489 9.22389 -0.291709 4.86746 2.58543 2.18155C5.54894 -0.584552 10.0497 -0.672149 13.1304 1.86201C16.2445 4.42331 17.2265 9.40649 14.1952 13.13C14.2421 13.1806 14.2914 13.2336 14.342 13.2842C15.7756 14.7191 17.213 16.1515 18.6404 17.5913C18.7971 17.7492 18.9069 17.9528 19.0377 18.1354C19.0377 18.2341 19.0377 18.3328 19.0377 18.4327C18.9415 18.7325 18.7441 18.9299 18.4443 19.0262C18.3456 19.0262 18.2469 19.0262 18.1482 19.0262ZM14.5505 8.01603C14.5431 4.42577 11.6191 1.50298 8.03374 1.50422C4.44719 1.50545 1.52316 4.42701 1.51823 8.01603C1.51206 11.6051 4.45829 14.5488 8.04485 14.5365C11.6376 14.5254 14.5579 11.5989 14.5505 8.01603Z" fill="white"/>
</g>
<defs>
<clipPath id="clip0_513_1105">
<rect width="19" height="19" fill="white"/>
</clipPath>
</defs>
</svg>
