<svg width="18" height="18" viewBox="0 0 18 18" fill="none" xmlns="http://www.w3.org/2000/svg">
<g clip-path="url(#clip0_513_1217)">
<path d="M9.0214 0.521486C9.2948 0.525147 9.48158 0.66167 9.60627 0.916932C10.3618 2.46105 11.1256 4.00099 11.8795 5.54564C11.9442 5.67798 12.0183 5.73395 12.1659 5.75487C13.8329 5.99182 15.4988 6.23767 17.1647 6.48142C17.2357 6.49188 17.3066 6.50235 17.3765 6.51699C17.8644 6.62161 18.0511 7.17869 17.7172 7.55112C17.5607 7.7253 17.3859 7.88327 17.2184 8.04699C16.1238 9.11721 15.0292 10.1879 13.932 11.2566C13.847 11.3392 13.8063 11.4099 13.8298 11.5422C14.1308 13.2689 14.4219 14.9976 14.7172 16.7254C14.7621 16.9885 14.6875 17.2066 14.4741 17.363C14.2529 17.5251 14.0171 17.5194 13.776 17.3923C12.2405 16.5815 10.704 15.7744 9.1701 14.961C9.05427 14.8998 8.96714 14.8951 8.84767 14.9584C7.33149 15.7634 5.81114 16.5606 4.2934 17.3635C4.0534 17.4906 3.81706 17.544 3.57497 17.3881C3.34488 17.2401 3.24471 17.0235 3.29062 16.7515C3.52071 15.3894 3.7534 14.0279 3.98506 12.6658C4.04871 12.2933 4.10401 11.9188 4.17914 11.549C4.20523 11.4214 4.17393 11.3466 4.08523 11.2603C2.88053 10.088 1.67897 8.91216 0.47636 7.73733C0.452881 7.71432 0.430968 7.69025 0.406447 7.66881C0.173751 7.46899 0.0605337 7.22576 0.162795 6.92133C0.267142 6.61219 0.523317 6.52379 0.817577 6.48195C2.49758 6.24185 4.17601 5.99392 5.85601 5.75539C5.99636 5.73552 6.06575 5.67589 6.1268 5.55244C6.88227 4.00832 7.64558 2.46785 8.40053 0.923731C8.5294 0.660623 8.71984 0.520963 9.0214 0.521486Z" fill="#3B4153"/>
</g>
<defs>
<clipPath id="clip0_513_1217">
<rect width="18" height="17" fill="white" transform="translate(0 0.5)"/>
</clipPath>
</defs>
</svg>
